<svg width="429" height="294" viewBox="0 0 429 294" fill="none" xmlns="http://www.w3.org/2000/svg">
<g clip-path="url(#clip0_66_224)">
<path d="M272.647 239.824C269.698 236.554 266.434 232.761 263.148 228.822L284.159 222.545C280.013 228.992 276.042 234.977 272.647 239.824ZM132.584 235.777L144.956 232.084L162.274 226.899L169.732 224.667L189.768 218.683L201.088 215.298L219.442 209.805L226.077 207.82L244.525 202.311L274.398 211.251L253.272 217.56C246.006 211.821 235.516 211.559 227.966 217.582C224.756 220.144 222.545 223.483 221.347 227.115L154.226 247.179L124.352 238.239L132.584 235.777ZM145.148 185.002C145.701 187.217 146.377 189.387 147.114 191.526C147.882 193.726 148.765 195.849 149.764 197.873C150.017 198.372 150.224 198.911 150.485 199.404L129.904 204.566L129.735 204.605C129.451 204.243 129.22 203.758 128.953 203.358C128.944 203.342 128.937 203.327 128.929 203.312C128.622 202.866 128.321 202.419 128.038 201.912C127.485 200.934 126.987 199.865 126.502 198.734C126.302 198.265 126.088 197.834 125.895 197.342C125.864 197.265 125.833 197.219 125.81 197.142C125.204 195.542 124.658 193.834 124.167 192.049C124.113 191.834 124.075 191.603 124.013 191.372C123.952 191.126 123.898 190.864 123.837 190.618C123.476 189.172 123.139 187.695 122.846 186.171C122.724 185.509 122.616 184.833 122.501 184.156C122.262 182.786 122.047 181.417 121.871 180.032C121.817 179.586 121.764 179.132 121.709 178.678L143.091 174.201C143.574 177.709 144.249 181.37 145.148 185.002ZM13.6099 49.0892L223.442 34.5153L224.64 143.484L155.423 157.691L148.712 159.091L141.907 160.523L141.807 160.545L120.818 164.954L114.053 166.369L107.256 167.8L101.827 168.938L95.0297 170.37L13.6099 187.464V49.0892ZM428.677 285.121C405.372 203.75 426.384 124.628 370.722 120.617C362.118 119.997 353.924 122.393 344.585 129.204C336.527 135.08 325.456 138.836 305.876 144.408C293.276 147.994 290.305 165.328 292.277 202.374L246.467 188.672C245.199 188.294 243.841 188.294 242.574 188.672L209.152 198.665L163.403 181.478C162.09 180.986 160.646 180.909 159.286 181.27L158.372 181.509C157.581 178.248 156.928 174.847 156.484 171.385L228.315 155.36C231.464 154.698 233.713 151.914 233.713 148.698L234.121 29.4364C234.121 27.3859 233.201 25.444 231.611 24.1473C230.022 22.8553 227.932 22.3322 225.927 22.7702L5.40769 36.8928C2.25892 37.5545 0.000366211 40.3354 0.000366211 43.559V195.849C0.000366211 197.896 0.929897 199.842 2.52001 201.142C3.74051 202.127 5.25356 202.666 6.80514 202.666C7.26597 202.666 7.73388 202.619 8.20258 202.511L95.0297 184.287V198.219L68.5341 205.204C65.5552 205.989 63.4814 208.681 63.4673 211.766C63.4515 214.851 65.5174 217.56 68.4885 218.367L107.673 229.007L98.6314 231.715C95.7516 232.576 93.7793 235.231 93.7793 238.239C93.7793 241.254 95.7516 243.909 98.6314 244.77L152.283 260.81C152.912 260.996 153.573 261.096 154.226 261.096C154.878 261.096 155.539 260.996 156.169 260.81L221.831 241.177C222.545 242.97 223.436 244.717 224.695 246.301C255.645 285.259 263.971 287.114 269.483 288.337C271.695 288.837 273.785 289.214 275.888 289.214C282.339 289.214 289.012 285.675 300.248 271.366C300.617 277.166 300.617 282.19 300.003 285.998C299.681 287.968 300.248 289.983 301.539 291.498C302.83 293.014 304.718 293.891 306.715 293.891H422.004C422.065 293.899 422.11 293.899 422.164 293.891C425.92 293.891 428.961 290.845 428.961 287.083C428.961 286.398 428.856 285.748 428.677 285.121Z" fill="#E8B931"/>
<path d="M303.443 134.489C305.563 135.535 307.729 136.481 309.955 137.319C312.352 138.227 314.81 138.995 317.314 139.643C322.927 141.074 328.771 141.92 334.822 141.92C345.214 141.92 355.052 139.612 363.944 135.58C366.44 134.442 368.844 133.161 371.171 131.757C373.289 130.484 375.324 129.103 377.29 127.622C394.48 114.659 405.66 94.1187 405.66 70.9618C405.66 31.8343 373.881 0 334.822 0C295.763 0 263.985 31.8343 263.985 70.9618C263.985 86.9247 269.287 101.65 278.211 113.5C279.514 115.229 282.346 118.5 282.346 118.5C289.5 117 295.5 114.5 299.5 112C299 118 294.5 121 288.5 124C288.5 126 297.02 131.291 303.443 134.489Z" fill="#E8B931"/>
</g>
<g filter="url(#filter0_i_66_224)">
<path d="M121.94 110.601C122.179 111.322 122.812 112.061 124.412 111.907C124.72 111.878 125.065 111.815 125.45 111.711C126.278 111.515 127.29 111.187 127.758 110.379C128.007 109.948 128.061 109.459 127.915 108.974C127.545 107.681 125.929 107.021 124.285 107.478C123.299 107.707 122.504 108.252 122.105 108.971C121.818 109.49 121.759 110.068 121.94 110.601Z" fill="#E8B931"/>
<path d="M117.36 63.7856C117.708 70.7056 132.476 77.8138 147.007 81.2863C155.011 82.9965 163.617 83.7676 170.341 83.1206C175.785 82.5968 179.98 81.1367 181.641 78.4989C179.247 85.3097 161.857 85.8752 146.625 82.3963C132.863 79.31 121.735 73.6296 118.276 67.9249C117.394 66.4688 117.1 65.0906 117.36 63.7856ZM137.129 61.0237L133.769 59.889L134.785 57.7637C136.053 57.6719 137.37 57.621 138.754 57.6233L137.129 61.0237ZM130.824 58.8948L129.465 58.4362C130.018 58.3247 130.596 58.2261 131.187 58.1353L130.824 58.8948ZM152.74 60.3619L145.968 58.075C148.111 58.3265 150.303 58.6502 152.582 59.1435C152.806 59.1964 153.019 59.2581 153.242 59.3129L152.74 60.3619ZM159.083 62.5037L155.685 61.3563L156.27 60.1328C157.445 60.4786 158.588 60.8447 159.69 61.234L159.083 62.5037ZM178.415 73.8355L178.412 73.8353L173.724 72.252L174.496 70.6364L176.894 71.4458C177.67 72.3047 178.269 73.1373 178.687 73.9277L178.415 73.8355ZM178.655 77.3346L178.722 77.1944L178.757 77.2063C178.72 77.2487 178.695 77.2932 178.655 77.3346ZM165.859 63.8488L165.196 65.2367L165.195 65.2376L163.345 69.1116L159.946 67.9642L162.631 62.3468C163.768 62.813 164.843 63.3029 165.88 63.8039L165.859 63.8488ZM133.562 73.4112L144.292 77.0345L144.14 77.3537C140.169 76.2469 136.582 74.9715 133.461 73.6233L133.562 73.4112ZM135.822 63.8372L135.049 65.4532L124.319 61.8297L125.091 60.214L135.822 63.8372ZM170.561 78.9386C170.585 78.8885 170.581 78.8319 170.599 78.7796L172.38 75.052L175.777 76.1996L175.079 77.6621L174.415 79.05L174.415 79.0509L174.41 79.0607C174.406 79.0683 174.399 79.0732 174.395 79.0807L174.252 79.3817C173.035 79.6755 171.609 79.8953 170.031 80.0467L170.561 78.9386ZM149.953 73.4129L153.351 74.5604L152.001 77.3852C151.997 77.3944 151.988 77.4 151.984 77.4093L151.241 78.9636C150.074 78.7588 148.894 78.5368 147.689 78.2793C147.671 78.2749 147.654 78.2696 147.635 78.2652L149.953 73.4129ZM122.96 64.6621L126.357 65.8096L125.658 67.2721L124.995 68.66L124.994 68.6609L124.853 68.9562C123.696 68.1301 122.776 67.3233 122.058 66.5488L122.96 64.6621ZM141.16 59.7432L144.558 60.8907L143.195 63.7412C143.195 63.7412 143.195 63.7435 143.194 63.7446L141.344 67.6159L139.187 66.8876L137.979 66.4793L139.357 63.5973C139.381 63.5465 139.377 63.4887 139.396 63.4358L141.16 59.7432ZM140.031 70.4266L139.259 72.0426L128.529 68.4202L129.301 66.8034L140.031 70.4266ZM161.722 73.7316L150.991 70.1082L151.763 68.4924L162.494 72.1156L161.722 73.7316ZM147.456 70.348C147.455 70.3496 147.455 70.3516 147.454 70.353L145.605 74.2229L142.206 73.0755L145.421 66.3511L148.818 67.4982L147.456 70.348ZM146.73 63.5014L147.502 61.8843L157.774 65.353L157.001 66.9695L146.73 63.5014ZM170.853 71.1041L170.2 72.4696C170.196 72.4776 170.189 72.4822 170.185 72.4905L168.333 76.3652L164.941 75.2193L168.154 68.494L171.552 69.6415L170.853 71.1041ZM164.686 80.2645L160.214 78.7543L160.213 78.7543L155.525 77.1712L156.296 75.5552L167.026 79.1785L166.511 80.2576C165.922 80.2708 165.306 80.2691 164.686 80.2645ZM146.847 103.356C147.143 104.806 148.185 106.223 149.029 107.244C149.591 107.975 150.259 108.762 151.024 109.441C152.302 112.556 152.587 115.931 151.762 119.297L151.756 119.324C149.349 130.406 141.572 132.491 128.032 132.468C114.442 132.997 106.186 131.159 104.205 120.183C103.982 119.079 103.9 117.967 103.923 116.857C105.11 117.717 106.389 118.02 107.713 117.893C110.164 117.657 112.752 116.065 115.117 114.347C118.929 111.744 120.653 109.773 120.881 107.756C121.013 106.576 120.603 105.462 119.663 104.446C117.935 102.545 114.924 101.953 111.817 102.575C115.646 99.6316 120.478 97.7637 125.671 97.264C126.783 97.1571 127.912 97.1124 129.049 97.1343C136.176 96.9428 142.519 99.1925 146.847 103.356ZM99.672 133.218C105.707 138.043 117.837 140.144 131.632 138.817C132.26 138.757 132.893 138.689 133.527 138.614C148.112 136.964 160.272 131.992 165.265 125.642C166.311 124.312 167 122.953 167.386 121.578C167.318 123.63 166.531 125.679 164.952 127.686C159.904 134.099 147.956 139.079 133.766 140.682C119.571 142.35 106.82 140.229 100.444 135.136C98.4549 133.548 97.2227 131.739 96.6837 129.752C97.3738 131 98.3534 132.164 99.672 133.218ZM184.774 78.9635C184.783 78.9292 184.78 78.8958 184.787 78.8617C184.795 78.8313 184.813 78.805 184.82 78.7744C185.398 76.5893 184.984 74.3151 183.589 72.0136C179.656 65.5277 168.042 59.4429 153.283 56.1346C132.795 51.4532 116.441 54.2491 114.41 62.7417C114.4 62.778 114.402 62.8152 114.393 62.8515C114.383 62.8861 114.365 62.915 114.355 62.9508L110.695 77.4069C110.383 78.6404 110.907 80.2383 111.942 81.2078C119.134 87.9521 127.871 92.892 137.283 95.8636C134.688 95.2159 131.927 94.8822 129.041 94.9598C123.96 94.8663 119.065 96.037 114.815 98.1827C114.487 97.493 113.886 96.9433 112.992 96.5573C110.129 95.3018 106.054 96.7341 103.94 99.7092C102.647 101.357 102.163 103.207 102.61 104.784C102.86 105.663 103.396 106.384 104.127 106.914C102.59 108.544 101.692 110.399 101.612 112.234C101.58 112.979 101.713 113.681 101.952 114.337C101.907 114.613 101.895 114.893 101.863 115.171C101.594 115.371 101.337 115.575 101.083 115.779C99.5181 116.995 98.1747 118.289 97.0991 119.655C94.8063 122.568 93.8419 125.612 94.2299 128.68C94.2378 128.755 94.2562 128.828 94.2656 128.903C94.2689 128.939 94.2626 128.971 94.2668 129.008L96.1375 145.195C96.4877 148.204 99.4234 151.682 102.68 152.948C112.595 156.823 123.542 158.171 134.271 157.138C145.921 156.017 157.312 152.088 166.835 145.538C169.719 143.561 171.784 139.507 171.438 136.498L169.567 120.311C169.563 120.276 169.551 120.248 169.546 120.214C169.539 120.141 169.54 120.068 169.531 119.995C169.203 116.902 167.571 114.161 164.678 111.85C163.323 110.769 161.728 109.818 159.936 108.994C159.742 108.901 159.561 108.801 159.361 108.711C159.565 108.359 159.735 107.986 159.842 107.579C160.275 105.926 159.801 104.04 158.573 102.448C156.384 99.2826 152.088 97.9399 148.998 99.4491C148.222 99.8237 147.667 100.308 147.293 100.876C145.104 99.0249 142.536 97.5819 139.686 96.5847C147.884 98.8526 156.531 99.6439 165.082 98.8211C169.521 98.3939 173.936 97.5328 178.244 96.2222C179.599 95.8113 180.804 94.6325 181.114 93.4196L184.774 78.9635Z" fill="#E8B931"/>
<path d="M131.947 103.302C130.753 104.315 130.161 105.465 130.188 106.722C130.228 108.622 131.64 110.554 134.739 112.96C137.041 114.876 139.86 116.802 142.69 116.53C143.686 116.434 144.684 116.065 145.662 115.327C147.159 114.23 148.017 112.635 148.077 110.833C148.153 108.586 146.975 106.271 144.885 104.518C141.148 101.051 135.227 100.496 131.947 103.302Z" fill="#E8B931"/>
<path d="M125.949 119.588C123.121 119.936 120.6 118.087 120.466 116.999C120.332 115.911 122.608 114.601 125.435 114.253C128.263 113.905 130.573 114.651 130.706 115.739C130.84 116.827 128.776 119.24 125.949 119.588Z" fill="#E8B931"/>
</g>
<g filter="url(#filter1_i_66_224)">
<path d="M74.8628 68.1262L76.5081 66.584L88.569 74.1454L86.983 75.632L77.1854 69.0755L82.4029 79.925L80.7576 81.4671L70.8378 75.0792L76.1775 85.7601L74.6211 87.2189L68.4744 74.1142L70.1345 72.5581L79.6514 78.4882L74.8628 68.1262Z" fill="#E8B931"/>
<path d="M76.2095 86.2032L74.9566 87.6537L70.9625 84.0355C71.03 84.5367 70.9724 85.053 70.7896 85.5842C70.6166 86.1243 70.3257 86.6309 69.9169 87.1041C69.4192 87.6802 68.8628 88.0746 68.2475 88.2873C67.633 88.5192 66.9819 88.5436 66.2942 88.3607C65.6161 88.1866 64.9285 87.7837 64.2314 87.1522L60.034 83.3498L61.3536 81.8222L65.3767 85.4667C66.0545 86.0807 66.7014 86.4008 67.3173 86.427C67.9333 86.4532 68.4901 86.1783 68.9877 85.6022C69.5031 85.0056 69.7191 84.376 69.6355 83.7135C69.5519 83.051 69.1567 82.3996 68.4499 81.7593L64.4994 78.1806L65.7523 76.7301L76.2095 86.2032Z" fill="#E8B931"/>
<path d="M56.6053 89.7227C57.0048 88.8387 57.5479 88.1262 58.2347 87.5849C58.9276 87.0616 59.7006 86.7556 60.5536 86.6668C61.4184 86.5835 62.3113 86.7538 63.2321 87.1775C64.1648 87.6067 64.8806 88.1843 65.3797 88.9102C65.8787 89.6362 66.1508 90.4382 66.1961 91.3162C66.2531 92.1997 66.0818 93.0834 65.6823 93.9674C65.2827 94.8513 64.7337 95.5612 64.0351 96.097C63.3428 96.6506 62.5614 96.9753 61.6909 97.0711C60.8323 97.1722 59.9425 97.011 59.0217 96.5872C58.089 96.158 57.376 95.5742 56.8825 94.8358C56.3835 94.1099 56.1083 93.2989 56.0569 92.403C56.0173 91.5125 56.2001 90.619 56.6053 89.7227ZM58.1367 90.4048C57.9116 90.9028 57.8068 91.4186 57.8223 91.9521C57.8497 92.4911 58.0258 93.0007 58.3506 93.4811C58.6698 93.9739 59.1777 94.3805 59.8742 94.7011C60.559 95.0162 61.1816 95.1373 61.7423 95.0644C62.3091 95.0094 62.7972 94.8129 63.2067 94.475C63.6279 94.1424 63.9511 93.7272 64.1762 93.2292C64.3957 92.7436 64.4889 92.2376 64.4559 91.7111C64.4291 91.2025 64.2505 90.7142 63.9201 90.2463C63.5896 89.7784 63.0761 89.3842 62.3796 89.0637C61.6948 88.7486 61.0719 88.6123 60.5107 88.6548C59.9557 88.7153 59.4732 88.8993 59.0632 89.2069C58.665 89.52 58.3561 89.9193 58.1367 90.4048Z" fill="#E8B931"/>
<path d="M53.0546 109.547L54.476 109.262C53.9577 108.995 53.5441 108.623 53.2353 108.147C52.9404 107.684 52.7663 107.061 52.7128 106.279C52.6631 105.55 52.7318 104.92 52.9192 104.389C53.1197 103.856 53.413 103.431 53.7992 103.113C54.1993 102.807 54.6742 102.631 55.2236 102.584C56.0478 102.513 56.7497 102.772 57.3294 103.36C57.9222 103.947 58.325 104.835 58.5378 106.025L59.0482 108.871L59.8135 108.806C60.2321 108.77 60.5733 108.564 60.8372 108.189C61.1141 107.813 61.2299 107.294 61.1848 106.633C61.1424 106.012 60.9625 105.498 60.6452 105.091C60.341 104.683 59.9091 104.428 59.3495 104.327L59.8221 102.577C60.703 102.759 61.4108 103.201 61.9455 103.901C62.4812 104.615 62.7854 105.505 62.8583 106.571C62.9449 107.839 62.7034 108.83 62.1337 109.543C61.564 110.257 60.7755 110.657 59.7682 110.743L53.1749 111.307L53.0546 109.547ZM57.5372 109L57.0142 106.257C56.8951 105.67 56.7012 105.239 56.4323 104.963C56.1766 104.687 55.8525 104.565 55.46 104.599C55.0937 104.63 54.796 104.798 54.5668 105.103C54.3516 105.42 54.2619 105.841 54.2979 106.367C54.3421 107.015 54.4967 107.544 54.7617 107.956C55.0267 108.367 55.3754 108.656 55.8079 108.823C56.2543 109.002 56.7588 109.067 57.3213 109.019L57.5372 109Z" fill="#E8B931"/>
<path d="M62.7761 109.847L63.4695 111.417L62.4734 112.036C62.9626 112.152 63.406 112.379 63.8036 112.718C64.2132 113.05 64.5389 113.49 64.7808 114.037C65.0549 114.658 65.1641 115.285 65.1084 115.918C65.07 116.558 64.8512 117.153 64.452 117.703C65.1146 117.749 65.7016 117.987 66.213 118.418C66.7364 118.843 67.1459 119.39 67.4415 120.059C67.7479 120.752 67.8666 121.434 67.7976 122.103C67.746 122.779 67.4965 123.404 67.0493 123.977C66.602 124.55 65.9462 125.048 65.0818 125.47L59.8594 128.019L59.0935 126.286L64.0997 123.842C64.9401 123.432 65.4958 122.938 65.7667 122.363C66.0497 121.781 66.0406 121.149 65.7396 120.468C65.4332 119.775 64.9633 119.339 64.3297 119.16C63.6961 118.981 62.9411 119.106 62.0647 119.533L57.1665 121.925L56.4005 120.191L61.4068 117.747C62.2472 117.337 62.8082 116.856 63.0899 116.305C63.3836 115.747 63.3799 115.128 63.0789 114.447C62.7725 113.753 62.3052 113.323 61.677 113.157C61.0542 113.002 60.3046 113.139 59.4282 113.567L54.5299 115.958L53.772 114.243L62.7761 109.847Z" fill="#E8B931"/>
<path d="M74.5664 121.956L76.0953 123.177L67.4004 134.526L65.8715 133.305L74.5664 121.956Z" fill="#E8B931"/>
<path d="M81.8601 126.46C82.6423 126.812 83.2607 127.278 83.7153 127.857C84.1699 128.436 84.4334 129.094 84.5059 129.83C84.5958 130.56 84.4641 131.325 84.1109 132.125C83.7136 133.025 83.2071 133.673 82.5914 134.07C81.9757 134.467 81.2872 134.66 80.5259 134.647C79.77 134.621 78.9832 134.424 78.1655 134.056L77.3672 135.72L75.8384 135.032L77.0573 132.03L77.5906 132.27C78.1002 132.499 78.5822 132.678 79.0364 132.808C79.508 132.93 79.9424 132.976 80.3396 132.945C80.7487 132.919 81.1166 132.777 81.4434 132.52C81.7875 132.255 82.0782 131.854 82.3155 131.317C82.5252 130.842 82.6156 130.396 82.5869 129.978C82.5699 129.566 82.4401 129.201 82.1974 128.882C81.972 128.555 81.6283 128.288 81.1661 128.08C80.4787 127.771 79.8448 127.711 79.2645 127.899C78.696 128.093 78.2545 128.546 77.94 129.258L76.2868 128.514C76.6115 127.746 77.058 127.153 77.6263 126.735C78.212 126.309 78.8642 126.071 79.5828 126.02C80.3188 125.961 81.0779 126.108 81.8601 126.46ZM74.9275 139.364C74.5956 139.214 74.3696 138.97 74.2492 138.632C74.1408 138.298 74.161 137.963 74.31 137.625C74.4645 137.275 74.7008 137.029 75.019 136.888C75.349 136.752 75.6799 136.758 76.0118 136.908C76.3318 137.052 76.546 137.29 76.6545 137.624C76.7748 137.963 76.7577 138.307 76.6032 138.657C76.4542 138.994 76.2147 139.231 75.8847 139.367C75.5665 139.509 75.2475 139.508 74.9275 139.364Z" fill="#E8B931"/>
</g>
<defs>
<filter id="filter0_i_66_224" x="94.1464" y="52.8789" width="91.9268" height="104.594" filterUnits="userSpaceOnUse" color-interpolation-filters="sRGB">
<feFlood flood-opacity="0" result="BackgroundImageFix"/>
<feBlend mode="normal" in="SourceGraphic" in2="BackgroundImageFix" result="shape"/>
<feColorMatrix in="SourceAlpha" type="matrix" values="0 0 0 0 0 0 0 0 0 0 0 0 0 0 0 0 0 0 127 0" result="hardAlpha"/>
<feOffset dx="1" dy="-1"/>
<feGaussianBlur stdDeviation="0.5"/>
<feComposite in2="hardAlpha" operator="arithmetic" k2="-1" k3="1"/>
<feColorMatrix type="matrix" values="0 0 0 0 0 0 0 0 0 0 0 0 0 0 0 0 0 0 0.25 0"/>
<feBlend mode="normal" in2="shape" result="effect1_innerShadow_66_224"/>
</filter>
<filter id="filter1_i_66_224" x="52.4764" y="63.8057" width="36.0925" height="77.8057" filterUnits="userSpaceOnUse" color-interpolation-filters="sRGB">
<feFlood flood-opacity="0" result="BackgroundImageFix"/>
<feBlend mode="normal" in="SourceGraphic" in2="BackgroundImageFix" result="shape"/>
<feColorMatrix in="SourceAlpha" type="matrix" values="0 0 0 0 0 0 0 0 0 0 0 0 0 0 0 0 0 0 127 0" result="hardAlpha"/>
<feOffset dy="1"/>
<feComposite in2="hardAlpha" operator="arithmetic" k2="-1" k3="1"/>
<feColorMatrix type="matrix" values="0 0 0 0 0 0 0 0 0 0 0 0 0 0 0 0 0 0 0.2 0"/>
<feBlend mode="normal" in2="shape" result="effect1_innerShadow_66_224"/>
</filter>
<clipPath id="clip0_66_224">
<rect width="429" height="294" fill="white"/>
</clipPath>
</defs>
</svg>
