<?xml version="1.0" encoding="UTF-8" standalone="no"?>
<!DOCTYPE svg PUBLIC "-//W3C//DTD SVG 1.1//EN" "http://www.w3.org/Graphics/SVG/1.1/DTD/svg11.dtd">
<svg width="100%" height="100%" viewBox="0 0 452 410" version="1.1" xmlns="http://www.w3.org/2000/svg" xmlns:xlink="http://www.w3.org/1999/xlink" xml:space="preserve" xmlns:serif="http://www.serif.com/" style="fill-rule:evenodd;clip-rule:evenodd;stroke-linejoin:round;stroke-miterlimit:2;">
    <g transform="matrix(0.870113,0,0,0.870113,0.444254,-38.1696)">
        <path d="M321.424,409.018C322.648,413.916 324.144,418.712 325.777,423.441C327.477,428.305 329.433,432.999 331.644,437.474C332.205,438.578 332.665,439.769 333.243,440.858L287.667,452.271L287.291,452.357C286.662,451.557 286.152,450.484 285.56,449.601C285.541,449.566 285.525,449.532 285.506,449.498C284.827,448.513 284.162,447.525 283.535,446.403C282.309,444.242 281.206,441.878 280.132,439.377C279.689,438.341 279.216,437.388 278.787,436.3C278.72,436.129 278.652,436.028 278.601,435.857C277.258,432.32 276.05,428.544 274.961,424.597C274.843,424.122 274.758,423.612 274.622,423.101C274.486,422.556 274.366,421.978 274.23,421.434C273.431,418.237 272.685,414.971 272.036,411.603C271.766,410.14 271.527,408.643 271.273,407.147C270.744,404.119 270.268,401.092 269.876,398.03C269.758,397.044 269.64,396.041 269.519,395.036L316.868,385.138C317.937,392.893 319.433,400.989 321.424,409.018ZM30.138,108.53L494.801,76.309L497.454,317.225L344.177,348.637L329.316,351.732L314.247,354.897L314.026,354.947L267.546,364.694L252.565,367.822L237.513,370.986L225.49,373.503L210.439,376.668L30.138,414.461L30.138,108.53ZM434.596,441.901C441.958,439.283 436.545,433.071 427.354,426.209C426.785,425.784 361.848,401.227 361.848,401.227C358.94,400.139 355.743,399.968 352.732,400.768L350.708,401.295C348.956,394.085 347.511,386.566 346.527,378.913L505.592,343.483C512.566,342.018 517.547,335.863 517.547,328.754L518.451,65.08C518.451,60.547 516.413,56.253 512.892,53.387C509.372,50.53 504.743,49.374 500.305,50.342L11.975,81.565C5.002,83.028 0.001,89.177 0.001,96.304L0.001,432.999C0.001,437.524 2.059,441.828 5.58,444.702C8.283,446.879 11.634,448.07 15.07,448.07C16.09,448.07 17.126,447.967 18.164,447.727L210.439,407.437L210.439,438.238L151.765,453.682C145.169,455.417 140.577,461.37 140.545,468.19C140.51,475.011 145.085,480.999 151.664,482.784L207.791,508.301C209.184,508.711 210.647,508.932 212.092,508.932C213.538,508.932 219.382,508.656 220.777,508.246C220.777,508.246 402.076,453.469 434.596,441.901Z" style="fill:rgb(232,185,49);fill-rule:nonzero;"/>
    </g>
</svg>
